<?xml version="1.0" encoding="UTF-8"?>
<svg width="100pt" height="100pt" version="1.1" viewBox="0 0 100 100" xmlns="http://www.w3.org/2000/svg">
 <g>
  <path d="m64.5 46.602c-0.30078-0.89844-1.1016-1.6016-2-1.6992l-6.6992-1-3-6c-0.39844-0.89844-1.3008-1.3984-2.1992-1.3984-0.89844 0-1.8008 0.5-2.1992 1.3984l-3 6-6.6992 1c-0.89844 0.10156-1.6992 0.80078-2 1.6992-0.30078 0.89844 0 1.8984 0.60156 2.6016l4.8008 4.6992-1.1055 6.5977c-0.19922 0.89844 0.19922 1.8984 1 2.3984 0.80078 0.60156 1.8008 0.60156 2.6016 0.19922l6-3.1016 6 3.1016c0.39844 0.19922 0.80078 0.30078 1.1992 0.30078 0.5 0 1-0.19922 1.5-0.5 0.80078-0.60156 1.1992-1.5 1-2.3984l-1.1016-6.6016 4.8008-4.6992c0.60156-0.69922 0.80078-1.6992 0.5-2.5977z"/>
  <path d="m94.898 46.602c-0.30078-0.89844-1.1016-1.6016-2-1.6992l-6.6992-1-3-6c-0.39844-0.89844-1.3008-1.3984-2.1992-1.3984s-1.8008 0.5-2.1992 1.3984l-3 6-6.6992 1c-0.89844 0.10156-1.6992 0.80078-2 1.6992-0.30078 0.89844 0 1.8984 0.60156 2.6016l4.8008 4.6992-1.1016 6.6016c-0.19922 0.89844 0.19922 1.8984 1 2.3984 0.80078 0.60156 1.8008 0.60156 2.6016 0.19922l6-3.1016 6 3.1016c0.39844 0.19922 0.80078 0.30078 1.1992 0.30078 0.5 0 1-0.19922 1.5-0.5 0.80078-0.60156 1.1992-1.5 1-2.3984l-1.1016-6.6016 4.8008-4.6992c0.49609-0.70312 0.79688-1.7031 0.49609-2.6016zm-9.8984 4.5977c-0.60156 0.60156-0.89844 1.3984-0.69922 2.1992l0.5 2.8984-2.6992-1.2969c-0.69922-0.39844-1.6016-0.39844-2.3008 0l-2.6016 1.3984 0.5-2.8984c0.10156-0.80078-0.10156-1.6016-0.69922-2.1992l-2.1016-2.1016 2.8984-0.39844c0.80078-0.10156 1.5-0.60156 1.8984-1.3984l1.3008-2.6992 1.3008 2.6992c0.39844 0.69922 1.1016 1.1992 1.8984 1.3984l2.8984 0.39844z"/>
  <path d="m21.301 37.898c-0.39844-0.89844-1.3008-1.3984-2.1992-1.3984-0.89844 0-1.8008 0.5-2.1992 1.3984l-3 6-6.6992 1c-0.89844 0.10156-1.6992 0.80078-2 1.6992-0.30078 0.89844 0 1.8984 0.60156 2.6016l4.8008 4.6992-1.1016 6.6016c-0.19922 0.89844 0.19922 1.8984 1 2.3984 0.39844 0.30078 1 0.5 1.5 0.5 0.39844 0 0.80078-0.10156 1.1992-0.30078l6-3.1016 6 3.1016c0.80078 0.39844 1.8984 0.39844 2.6016-0.19922 0.80078-0.60156 1.1992-1.5 1-2.3984l-1.1016-6.6016 4.8008-4.6992c0.69922-0.69922 0.89844-1.6992 0.60156-2.6016-0.30078-0.89844-1.1016-1.6016-2-1.6992l-6.6992-1z"/>
 </g>
</svg>
