<?xml version="1.0" encoding="UTF-8"?>
<svg width="100pt" height="100pt" version="1.1" viewBox="0 0 100 100" xmlns="http://www.w3.org/2000/svg">
 <path d="m67.855 59.297h-4.2812l-1.7891-1.7891c10.66-12.77 10.195-31.574-1.5391-43.312-12.445-12.445-32.836-12.219-45.555 0.5s-12.945 33.109-0.5 45.555c11.738 11.738 30.547 12.199 43.316 1.5391l1.7891 1.7891v4.2812l25.371 25.371c2.3633 2.3633 6.1992 2.3633 8.5625 0 2.3672-2.3633 2.3672-6.1953 0-8.5625zm-13.746-5.1875c-9.5391 9.5391-24.832 9.7109-34.168 0.375-9.332-9.332-9.1641-24.625 0.37891-34.164 9.5391-9.5391 24.832-9.707 34.164-0.375 9.332 9.3359 9.168 24.625-0.375 34.164z"/>
</svg>
