<?xml version="1.0" encoding="UTF-8"?>
<svg width="100pt" height="100pt" version="1.1" viewBox="0 0 100 100" xmlns="http://www.w3.org/2000/svg">
 <g>
  <path d="m29.168 29.168c0-11.508 9.3242-20.836 20.832-20.836 11.504 0 20.832 9.3281 20.832 20.836 0 11.504-9.3281 20.832-20.832 20.832-11.508 0-20.832-9.3281-20.832-20.832zm20.832-12.5c-6.9023 0-12.5 5.5938-12.5 12.5 0 6.9023 5.5977 12.5 12.5 12.5s12.5-5.5977 12.5-12.5c0-6.9062-5.5977-12.5-12.5-12.5z" fill-rule="evenodd"/>
  <path d="m50 62.5c-13.809 0-25 11.191-25 25 0 2.3008-1.8672 4.168-4.168 4.168s-4.1641-1.8672-4.1641-4.168c0-18.41 14.922-33.332 33.332-33.332 2.3008 0 4.168 1.8633 4.168 4.1641s-1.8672 4.168-4.168 4.168z"/>
  <path d="m82.113 69.613c1.625-1.6289 1.625-4.2656 0-5.8945-1.6289-1.625-4.2656-1.625-5.8945 0l-5.3867 5.3906-5.3867-5.3906c-1.625-1.625-4.2656-1.625-5.8906 0-1.6289 1.6289-1.6289 4.2656 0 5.8945l5.3867 5.3867-5.3867 5.3867c-1.6289 1.6289-1.6289 4.2656 0 5.8945 1.625 1.625 4.2656 1.625 5.8906 0l5.3867-5.3906 5.3867 5.3906c1.6289 1.625 4.2656 1.625 5.8945 0 1.625-1.6289 1.625-4.2656 0-5.8945l-5.3867-5.3867z"/>
 </g>
</svg>
