<?xml version="1.0" encoding="UTF-8"?>
<svg width="100pt" height="100pt" version="1.1" viewBox="0 0 100 100" xmlns="http://www.w3.org/2000/svg">
 <g>
  <path d="m50 8.332c-11.508 0-20.832 9.3281-20.832 20.836 0 11.504 9.3242 20.832 20.832 20.832 11.504 0 20.832-9.3281 20.832-20.832 0-11.508-9.3281-20.836-20.832-20.836zm-12.5 20.836c0-6.9062 5.5977-12.5 12.5-12.5s12.5 5.5938 12.5 12.5c0 6.9023-5.5977 12.5-12.5 12.5s-12.5-5.5977-12.5-12.5z" fill-rule="evenodd"/>
  <path d="m25 87.5c0-13.809 11.191-25 25-25 2.3008 0 4.168-1.8672 4.168-4.168s-1.8672-4.1641-4.168-4.1641c-18.41 0-33.332 14.922-33.332 33.332 0 2.3008 1.8633 4.168 4.1641 4.168s4.168-1.8672 4.168-4.168z"/>
  <path d="m66.668 91.668c-2.3008 0-4.168-1.8672-4.168-4.168v-8.332h-8.332c-2.3008 0-4.168-1.8672-4.168-4.168s1.8672-4.168 4.168-4.168h8.332v-8.332c0-2.3008 1.8672-4.168 4.168-4.168s4.1641 1.8672 4.1641 4.168v8.332h8.3359c2.3008 0 4.1641 1.8672 4.1641 4.168s-1.8633 4.168-4.1641 4.168h-8.3359v8.332c0 2.3008-1.8633 4.168-4.1641 4.168z"/>
 </g>
</svg>
