<?xml version="1.0" encoding="UTF-8"?>
<svg width="100pt" height="100pt" version="1.1" viewBox="0 0 100 100" xmlns="http://www.w3.org/2000/svg">
 <g>
  <path d="m33.793 10.688c-0.61328-0.78125-1.5508-1.2344-2.543-1.2344s-1.9297 0.45312-2.543 1.2344l-15.625 21.875c-0.67969 0.95312-0.77344 2.207-0.23828 3.2461 0.53906 1.043 1.6094 1.6953 2.7812 1.6953h6.25v46.871c0 0.82812 0.32812 1.625 0.91406 2.2109 0.58594 0.58594 1.3828 0.91406 2.2109 0.91406h12.5c0.82812 0 1.625-0.32812 2.2109-0.91406 0.58594-0.58594 0.91406-1.3828 0.91406-2.2109v-46.871h6.25c1.1719 0 2.2422-0.65234 2.7812-1.6953 0.53516-1.0391 0.44141-2.293-0.23828-3.2461z"/>
  <path d="m87.191 67.398c-0.51953-1.0859-1.6133-1.7734-2.8164-1.7734h-6.25v-50c0-0.82812-0.32812-1.625-0.91406-2.2109-0.58594-0.58594-1.3828-0.91406-2.2109-0.91406h-12.5c-1.7266 0-3.125 1.3984-3.125 3.125v50h-6.25c-1.2031 0-2.2969 0.6875-2.8164 1.7734-0.51953 1.082-0.375 2.3672 0.37891 3.3047l15.625 19.508c0.58984 0.74219 1.4883 1.1719 2.4375 1.1719s1.8477-0.42969 2.4375-1.1719l15.625-19.508c0.75391-0.9375 0.89844-2.2227 0.37891-3.3047z"/>
 </g>
</svg>
