<?xml version="1.0" encoding="UTF-8"?>
<svg width="100pt" height="100pt" version="1.1" viewBox="0 0 100 100" xmlns="http://www.w3.org/2000/svg">
 <path d="m21.363 42.219 24.328 24.328c0.027344 0.027344 0.035156 0.066406 0.0625 0.089844 1.1445 1.1445 2.6602 1.7148 4.1719 1.7109 1.5117 0.003906 3.0234-0.5625 4.1719-1.7109 0.027344-0.027344 0.035156-0.0625 0.0625-0.089844l24.328-24.328c2.2852-2.2852 2.2852-6.0234 0-8.3086-2.2852-2.2852-6.0234-2.2852-8.3086 0l-20.258 20.25-20.25-20.25c-2.2852-2.2852-6.0234-2.2852-8.3086 0-2.2852 2.2852-2.2852 6.0234 0 8.3086z"/>
</svg>
